<svg id="Layer_1" data-name="Layer 1" xmlns="http://www.w3.org/2000/svg" width="750" height="171.77" viewBox="0 0 750 171.77"><defs><style>.cls-1{fill:#4285f4;}.cls-2{fill:#34a853;}.cls-3{fill:#fbbc04;}.cls-4{fill:#ea4335;}.cls-5{fill:#c5221f;}.cls-6{fill:#787879;}.cls-6,.cls-7,.cls-8{fill-rule:evenodd;}.cls-7{fill:#79797a;}.cls-8{fill:#7a7a7b;}</style></defs><title>new_gmail_logo</title><path class="cls-1" d="M15.61,460.88H52V372.42l-52-39V445.27A15.61,15.61,0,0,0,15.61,460.88Z" transform="translate(0 -289.12)"/><path class="cls-2" d="M176.93,460.88h36.43A15.61,15.61,0,0,0,229,445.27V333.39l-52,39Z" transform="translate(0 -289.12)"/><path class="cls-3" d="M176.93,304.77v67.65l52-39V312.58c0-19.3-22-30.32-37.47-18.74Z" transform="translate(0 -289.12)"/><path class="cls-4" d="M52,372.42V304.77l62.44,46.83,62.45-46.83v67.65l-62.45,46.83Z" transform="translate(0 -289.12)"/><path class="cls-5" d="M0,312.58v20.81l52,39V304.77L37.47,293.84C22,282.26,0,293.28,0,312.58Z" transform="translate(0 -289.12)"/><path class="cls-6" d="M750,439c-4.43,0-8.86-.09-13.28.06-1.86.06-2.19-.6-2.18-2.29q.06-42.65,0-85.3c0-10.2,0-20.4,0-30.6,0-1.69.33-2.35,2.19-2.29,4.42.15,8.85.06,13.28.06Z" transform="translate(0 -289.12)"/><path class="cls-6" d="M423,374.63c9,0,18,0,27,0,1.22,0,2.18,0,2.35,1.6,1.69,15.94-.71,30.93-11,43.78s-23.77,19.85-40.18,21.38c-12.45,1.16-24.53-.1-35.67-6-19.29-10.22-31.24-25.94-33.91-47.92-2.34-19.3,2.19-36.7,15.61-51.24,14.42-15.61,32.4-21.9,53.4-19.85,13.44,1.31,25.51,5.9,35.39,15.44,2.16,2.08,2.13,2.1,0,4.21-2.65,2.65-5.34,5.28-7.95,8-.81.84-1.26.82-2.12,0C412.69,330.7,396.54,327.8,379.23,333s-27.86,17.57-31.29,35.35c-2.82,14.6-.71,28.52,8.65,40.56,11,14.14,25.79,19.44,43.36,17.67A42.11,42.11,0,0,0,424.55,416c7.44-6.68,11.21-15.22,12.65-25,.29-1.94-.61-2-2.12-2-13.07,0-26.14,0-39.21.06-1.71,0-2.38-.36-2.3-2.21.15-3.38.12-6.76,0-10.14-.05-1.65.42-2.19,2.14-2.17C404.81,374.67,413.9,374.63,423,374.63Z" transform="translate(0 -289.12)"/><path class="cls-7" d="M484.42,367.9C491.05,359,499.8,353.81,511,354s19.9,5.09,25.1,15.59a47.27,47.27,0,0,1,7-8c9.54-8.32,25.63-10.23,36.77-4.18,8.26,4.49,12.09,12,13.71,20.87a55.37,55.37,0,0,1,.78,9.87c0,16.22,0,32.44.06,48.67,0,1.75-.41,2.34-2.23,2.26-3.6-.14-7.21-.14-10.81,0-2,.09-2.66-.38-2.64-2.53.1-15.25,0-30.5.06-45.75a45.32,45.32,0,0,0-1-10.51c-1.78-7.56-6.47-11.54-14.25-12-12.14-.77-21.59,7.07-23.63,19.57a41.63,41.63,0,0,0-.48,7c0,14,0,28.09,0,42.14,0,1.62-.32,2.23-2.08,2.17q-5.74-.23-11.49,0c-1.79.07-2.08-.61-2.07-2.2q.07-22.87,0-45.74a45.18,45.18,0,0,0-1-11.18c-1.87-7.35-6.47-11.22-14.05-11.71-12.58-.83-22.35,7.59-23.91,20.56a59.89,59.89,0,0,0-.39,7q0,20.16,0,40.34c0,3.39.48,2.88-3,2.92s-6.92-.07-10.37,0c-1.51.05-2.06-.3-2.05-1.95q.07-39.31,0-78.64c0-1.5.44-1.94,1.91-1.9q5.52.14,11,0c1.45,0,2,.34,1.94,1.87-.11,2.4-.05,4.8,0,7.21C484,366.36,483.67,367.15,484.42,367.9Z" transform="translate(0 -289.12)"/><path class="cls-7" d="M665.21,427.76a2.15,2.15,0,0,0-1.69,1.23c-7.49,10.13-17.53,14-29.93,12.4-9.45-1.24-17.17-5.46-22.45-13.42a26,26,0,0,1,12.05-38.68c13.27-5.49,26.78-5.11,40.07.4,1.5.62,1.92.76,2-1.16.51-12.74-10.54-20.2-19.79-20.71-8.71-.47-15.88,2.56-21.19,9.58-.85,1.13-1.42,1.1-2.51.39-3.44-2.27-6.91-4.52-10.49-6.57-1.66-1-1.33-1.67-.39-2.86a35.16,35.16,0,0,1,20-13c10.24-2.4,20.45-2.23,30.23,2,11.25,4.9,17.4,13.77,18.51,25.9,1,10.85.25,21.76.38,32.64.08,7,0,14,.05,20.95,0,1.6-.28,2.27-2.07,2.2-3.67-.15-7.36-.11-11,0-1.36,0-1.83-.34-1.78-1.76C665.28,434.2,665.21,431.07,665.21,427.76ZM646.07,398c-6.81,0-12.68,1.21-17.66,5.21-4.49,3.6-6.59,8.24-5,13.92s6,8.68,11.42,10.11c13.2,3.49,28-6.65,30.11-20.2.4-2.61-.26-3.95-2.52-5.17C657.1,399,651.39,398.21,646.07,398Z" transform="translate(0 -289.12)"/><path class="cls-8" d="M714.35,397.83c0,12.84-.07,25.68.07,38.52,0,2.39-.71,2.86-2.88,2.75-3.67-.17-7.36-.11-11,0-1.42,0-1.77-.46-1.76-1.81q0-39.4,0-78.83c0-1.53.53-1.89,2-1.86,3.9.09,7.81.11,11.71,0,1.64-.05,2,.54,2,2.06C714.33,371.7,714.35,384.77,714.35,397.83Z" transform="translate(0 -289.12)"/><path class="cls-7" d="M706.67,317a11.35,11.35,0,1,1-11.49,11.39A11.32,11.32,0,0,1,706.67,317Z" transform="translate(0 -289.12)"/></svg>